<svg width="40" height="40" viewBox="0 0 40 40" fill="none" xmlns="http://www.w3.org/2000/svg">
<path d="M22.6263 5.81836H4.24242C2.53697 5.81836 0 6.95149 0 10.0729V29.9275C0 33.0489 2.53697 34.182 4.24242 34.182H25.4545V31.3456H4.25939C3.60606 31.3286 2.82828 31.0691 2.82828 29.9275C2.82828 29.7842 2.84101 29.6566 2.86222 29.5403C3.02061 28.7248 3.68667 28.5234 4.25798 28.5093H24.0404C24.0659 28.5093 24.0842 28.4965 24.1097 28.4951H25.4545V8.65472C25.4545 7.09047 24.1861 5.81836 22.6263 5.81836ZM22.6263 25.6729H2.82828V10.0729C2.82828 8.92985 3.60606 8.67174 4.24242 8.65472H14.1414V18.582L16.9697 17.1638L19.798 18.582V8.65472H22.6263V25.6729Z" fill="#5682B3"/>
</svg>
