<svg width="40" height="40" viewBox="0 0 40 40" fill="none" xmlns="http://www.w3.org/2000/svg">
<path d="M17.9157 3.85457C17.7609 3.86482 17.6096 3.90547 17.4704 3.97419C17.3313 4.04293 17.207 4.1384 17.1047 4.25516C17.0024 4.37192 16.9241 4.50769 16.8743 4.6547C16.8245 4.80172 16.8042 4.9571 16.8144 5.11198C16.8247 5.26687 16.8653 5.41822 16.934 5.55739C17.0028 5.69657 17.0982 5.82084 17.215 5.92312C17.3318 6.02539 17.4675 6.10367 17.6145 6.15348C17.7616 6.20329 17.9169 6.22365 18.0718 6.21341L18.0721 6.21339C20.0394 6.0807 22.0124 6.3706 23.8584 7.06362C25.7045 7.75663 27.3808 8.83671 28.7748 10.2313C30.1689 11.6259 31.2483 13.3026 31.9405 15.149C32.6324 16.9942 32.9216 18.9661 32.7887 20.9323C32.7723 21.0894 32.7877 21.2483 32.8338 21.3994C32.8803 21.5516 32.9571 21.693 33.0596 21.8148C33.162 21.9367 33.288 22.0366 33.4301 22.1086C33.5721 22.1805 33.7272 22.2231 33.8861 22.2336C34.045 22.2441 34.2043 22.2224 34.3546 22.1698C34.5049 22.1172 34.643 22.0348 34.7606 21.9275C34.8783 21.8201 34.973 21.6902 35.0391 21.5453C35.1047 21.4017 35.1409 21.2464 35.1455 21.0886C35.3007 18.7866 34.9618 16.478 34.1516 14.3176C33.341 12.1562 32.0772 10.1931 30.4453 8.56041C28.8133 6.92768 26.8509 5.66302 24.6898 4.85137C22.5287 4.03972 20.219 3.69985 17.9157 3.85457ZM17.9157 3.85457C17.9158 3.85457 17.9158 3.85457 17.9158 3.85457L17.9278 4.03599L17.9156 3.85458C17.9157 3.85458 17.9157 3.85457 17.9157 3.85457Z" fill="#5682B3" stroke="#5682B3" stroke-width="0.363636"/>
<path d="M16.8183 9.96864C16.8247 9.81319 16.8617 9.66053 16.9272 9.51942C16.9927 9.3783 17.0854 9.25151 17.2001 9.14632C17.3147 9.04113 17.449 8.95961 17.5952 8.90644C17.7414 8.85328 17.8966 8.8295 18.052 8.83646M16.8183 9.96864L18.0439 9.0181M16.8183 9.96864L16.9999 9.9761L16.8183 9.96832C16.8116 10.1237 16.8357 10.2789 16.8892 10.425C16.9427 10.5711 17.0244 10.7052 17.1299 10.8196C17.2353 10.934 17.3622 11.0265 17.5034 11.0917C17.6445 11.1569 17.7971 11.1936 17.9524 11.1998L16.8183 9.96864ZM18.052 8.83646C18.052 8.83646 18.0521 8.83646 18.0521 8.83646L18.0439 9.0181M18.052 8.83646C18.0519 8.83645 18.0519 8.83645 18.0519 8.83645L18.0439 9.0181M18.052 8.83646C21.2217 8.97462 24.2246 10.2959 26.4678 12.5396C28.7109 14.7831 30.0317 17.7858 30.1695 20.9552M18.0439 9.0181C21.1683 9.15426 24.1281 10.4566 26.3393 12.6681C28.5504 14.8797 29.8523 17.8397 29.9879 20.9641M30.1695 20.9552C30.1695 20.9548 30.1695 20.9544 30.1695 20.9541L29.9879 20.9641M30.1695 20.9552C30.1696 20.9555 30.1696 20.9559 30.1696 20.9562L29.9879 20.9641M30.1695 20.9552L29.9879 20.9641M27.8082 21.0569C27.8083 21.0573 27.8083 21.0577 27.8083 21.058L27.9899 21.0501L27.8082 21.0557C27.8082 21.0561 27.8082 21.0565 27.8082 21.0569Z" fill="#5682B3" stroke="#5682B3" stroke-width="0.363636"/>
<path d="M16 25.4318C16.645 25.4318 17.2635 25.1756 17.7196 24.7196C18.1756 24.2635 18.4318 23.645 18.4318 23C18.4318 22.355 18.1756 21.7365 17.7196 21.2804C17.2635 20.8244 16.645 20.5682 16 20.5682C15.355 20.5682 14.7365 20.8244 14.2804 21.2804C13.8244 21.7365 13.5682 22.355 13.5682 23C13.5682 23.645 13.8244 24.2635 14.2804 24.7196C14.7365 25.1756 15.355 25.4318 16 25.4318Z" fill="#5682B3" stroke="#5682B3" stroke-width="0.363636"/>
<path d="M16 32.6428L11.1786 27.8194L11.0807 27.7214C10.1806 26.7836 9.5667 25.6071 9.31278 24.3303C9.04976 23.0078 9.18482 21.6369 9.70089 20.3911C10.217 19.1452 11.0909 18.0804 12.2121 17.3313C13.3333 16.5821 14.6515 16.1822 16 16.1822C17.3485 16.1822 18.6667 16.5821 19.7879 17.3313C20.9091 18.0804 21.783 19.1452 22.2991 20.3911C22.8152 21.6369 22.9503 23.0078 22.6872 24.3303C22.4242 25.6529 21.7749 26.8678 20.8214 27.8214C20.8214 27.8214 20.8214 27.8214 20.8214 27.8214L16 32.6428ZM9.50744 29.4925L15.1633 35.1483C15.2731 35.2584 15.4035 35.3457 15.5471 35.4053C15.6906 35.4649 15.8446 35.4955 16 35.4955C16.1555 35.4955 16.3094 35.4649 16.453 35.4053C16.5965 35.3457 16.7269 35.2584 16.8367 35.1483L22.4926 29.4925C23.7767 28.2084 24.6511 26.5723 25.0054 24.7912C25.3597 23.0101 25.1778 21.164 24.4829 19.4862C23.7879 17.8085 22.6111 16.3745 21.1011 15.3656C19.5912 14.3567 17.816 13.8182 16 13.8182C14.184 13.8182 12.4088 14.3567 10.8989 15.3656C9.38893 16.3745 8.21207 17.8085 7.51712 19.4862C6.82217 21.164 6.64033 23.0101 6.9946 24.7912C7.34888 26.5723 8.22335 28.2084 9.50744 29.4925Z" fill="#5682B3" stroke="#5682B3" stroke-width="0.363636"/>
</svg>
