<svg width="40" height="40" viewBox="0 0 40 40" fill="none" xmlns="http://www.w3.org/2000/svg">
<path d="M30.5455 5.81836H0V15.005H1.52727V31.8471C1.52727 32.6592 1.84909 33.4381 2.42193 34.0124C2.99477 34.5866 3.7717 34.9093 4.58182 34.9093H25.9636C26.7738 34.9093 27.5507 34.5866 28.1235 34.0124C28.6964 33.4381 29.0182 32.6592 29.0182 31.8471V15.005H30.5455V5.81836ZM3.05455 8.88056H27.4909V11.9428H3.05455V8.88056ZM25.9636 31.8471H4.58182V15.005H25.9636V31.8471ZM10.6909 18.0672H19.8545C19.8545 18.8793 19.5327 19.6582 18.9599 20.2325C18.3871 20.8067 17.6101 21.1294 16.8 21.1294H13.7455C12.9353 21.1294 12.1584 20.8067 11.5856 20.2325C11.0127 19.6582 10.6909 18.8793 10.6909 18.0672Z" fill="#5682B3"/>
</svg>
