<svg width="58" height="57" viewBox="0 0 58 57" fill="none" xmlns="http://www.w3.org/2000/svg">
<path d="M29.0993 3.01846C34.0991 3.01846 38.9868 4.50108 43.144 7.27884C47.3012 10.0566 50.5412 14.0047 52.4546 18.624C54.368 23.2432 54.8686 28.3261 53.8932 33.2298C52.9178 38.1336 50.5101 42.638 46.9747 46.1734C43.4393 49.7088 38.9349 52.1165 34.0311 53.0919C29.1274 54.0673 24.0445 53.5667 19.4253 51.6533C14.8061 49.74 10.8579 46.4998 8.0801 42.3426C5.30234 38.1854 3.81973 33.2979 3.81973 28.298C3.82772 21.5959 6.49366 15.1706 11.2328 10.4315C15.9719 5.69239 22.3972 3.02645 29.0993 3.01846ZM29.0993 0C23.5025 0 18.0314 1.65965 13.3778 4.76908C8.72419 7.87851 5.09712 12.2981 2.95531 17.4689C0.8135 22.6396 0.253146 28.3294 1.34503 33.8187C2.43692 39.308 5.13204 44.3502 9.0896 48.3078C13.0471 52.2653 18.0894 54.9605 23.5787 56.0524C29.068 57.1442 34.7578 56.5838 39.9286 54.442C45.0994 52.3002 49.5189 48.6732 52.6283 44.0196C55.7378 39.366 57.3974 33.8949 57.3974 28.298C57.3974 20.7929 54.416 13.5952 49.109 8.2883C43.8021 2.98139 36.6044 0 29.0993 0Z" fill="#FDFDFD"/>
<path d="M22.6098 22.0576H17.0181V39.7835H22.6098V22.0576Z" fill="#FDFDFD"/>
<path d="M37.8979 21.8838C34.6908 21.8838 32.6835 23.6194 32.3137 24.8343V22.0574H26.0278C26.1033 23.5666 26.0278 39.7832 26.0278 39.7832H32.3137V30.1845C32.2685 29.6974 32.3146 29.206 32.4496 28.7357C32.6625 28.1034 33.0681 27.5538 33.6095 27.164C34.1509 26.7742 34.8009 26.5638 35.4681 26.5624C37.6489 26.5624 38.645 28.1999 38.645 30.5996V39.7832H44.9837V29.928C44.9913 24.4344 41.8672 21.8838 37.8979 21.8838Z" fill="#FDFDFD"/>
<path d="M19.7119 13.689C17.6442 13.689 16.2935 15.0171 16.2935 16.7678C16.2953 17.1933 16.3849 17.6139 16.5566 18.0033C16.7284 18.3926 16.9786 18.7423 17.2916 19.0306C17.6047 19.3189 17.9738 19.5394 18.3759 19.6785C18.7781 19.8177 19.2046 19.8723 19.6289 19.8391H19.6741C21.7719 19.8391 23.085 18.4808 23.085 16.7603C23.0813 16.332 22.9892 15.909 22.8144 15.518C22.6396 15.127 22.3859 14.7763 22.0692 14.4879C21.7525 14.1995 21.3796 13.9797 20.974 13.8422C20.5683 13.7048 20.1387 13.6526 19.7119 13.689Z" fill="#FDFDFD"/>
</svg>
