<svg width="57" height="57" viewBox="0 0 57 57" fill="none" xmlns="http://www.w3.org/2000/svg">
<path d="M28.298 3.01846C33.2979 3.01846 38.1854 4.50111 42.3426 7.27887C46.4999 10.0566 49.74 14.0047 51.6533 18.624C53.5667 23.2432 54.0673 28.3261 53.0919 33.2298C52.1165 38.1336 49.7088 42.638 46.1734 46.1734C42.638 49.7089 38.1336 52.1165 33.2298 53.0919C28.3261 54.0673 23.2432 53.5667 18.624 51.6533C14.0047 49.74 10.0566 46.4999 7.27881 42.3427C4.50106 38.1854 3.01845 33.2979 3.01845 28.298C3.02644 21.5959 5.69237 15.1706 10.4315 10.4315C15.1706 5.69239 21.5959 3.02645 28.298 3.01846ZM28.298 1.00676e-06C22.7012 1.00676e-06 17.2301 1.65965 12.5765 4.76908C7.92291 7.87851 4.29589 12.2981 2.15408 17.4689C0.0122649 22.6397 -0.548136 28.3295 0.54375 33.8187C1.63564 39.308 4.33076 44.3503 8.28831 48.3078C12.2459 52.2654 17.2881 54.9605 22.7774 56.0524C28.2667 57.1443 33.9565 56.5839 39.1272 54.442C44.298 52.3002 48.7176 48.6732 51.827 44.0196C54.9364 39.366 56.5961 33.8949 56.5961 28.298C56.5971 24.5816 55.8658 20.9014 54.4441 17.4677C53.0223 14.034 50.9379 10.914 48.31 8.28611C45.6821 5.6582 42.5621 3.57382 39.1284 2.15206C35.6947 0.730303 32.0145 -0.000990438 28.298 1.00676e-06Z" fill="#FDFDFD"/>
<path d="M39.6704 23.1361C39.3489 22.374 38.952 21.6459 38.4857 20.9628C38.0286 20.2792 37.5054 19.6423 36.9236 19.0612C35.1514 17.2832 32.8939 16.0678 30.4339 15.5673C27.9 15.0526 25.2696 15.3156 22.8878 16.3219C22.1239 16.6447 21.3935 17.0415 20.7069 17.5067C20.0251 17.9661 19.3884 18.4891 18.8053 19.0687C17.641 20.2417 16.709 21.6243 16.0585 23.1436C15.3902 24.7243 15.0459 26.423 15.0459 28.1392C15.0459 29.8553 15.3902 31.554 16.0585 33.1347C16.3843 33.8972 16.781 34.6273 17.2433 35.3155C17.7051 35.9932 18.2279 36.6272 18.8053 37.2096C19.3882 37.7917 20.025 38.3172 20.7069 38.7792C21.3937 39.242 22.1241 39.6362 22.8878 39.9564C24.4692 40.6218 26.1676 40.9646 27.8833 40.9646C29.599 40.9646 31.2974 40.6218 32.8789 39.9564C33.6394 39.6346 34.3671 39.2404 35.0522 38.7792C35.7341 38.3172 36.3709 37.7917 36.9538 37.2096C37.5355 36.6311 38.0586 35.9967 38.5158 35.3155C38.9742 34.6247 39.3611 33.8889 39.6704 33.1196C40.3358 31.5382 40.6785 29.8398 40.6785 28.1241C40.6785 26.4084 40.3358 24.71 39.6704 23.1285V23.1361ZM27.8532 17.1746C30.5185 17.1758 33.0918 18.1499 35.0899 19.9139C35.0899 19.9139 33.4977 22.3286 29.3624 23.8756C28.1427 21.6565 26.7763 19.5212 25.2723 17.484C26.1053 17.2834 26.9586 17.1796 27.8154 17.1746H27.8532ZM23.1745 18.2537C24.6522 20.2781 26.0103 22.3871 27.2419 24.5698C23.9413 25.4404 20.5436 25.8892 17.1301 25.9055C17.4703 24.2482 18.1896 22.6922 19.2317 21.3594C20.2739 20.0267 21.6105 18.9533 23.1368 18.2235L23.1745 18.2537ZM19.7033 35.4816C17.8931 33.4736 16.8928 30.8652 16.8961 28.1618C16.8961 28.0486 16.8961 27.9354 16.8961 27.8147C20.7018 27.8319 24.4904 27.306 28.1474 26.2527C28.4568 26.8714 28.7587 27.4977 29.0304 28.1165L28.6002 28.2524C22.6916 30.1615 19.6882 35.4816 19.6882 35.4816H19.7033ZM27.8532 39.1188C25.3649 39.1221 22.9502 38.2755 21.0088 36.7192L20.873 36.6059L21.0088 36.7192L21.1144 36.8022C21.1144 36.8022 23.2198 32.2216 29.717 29.9578H29.785C30.8283 32.6442 31.6141 35.4236 32.1318 38.2586C30.764 38.8244 29.2955 39.1067 27.8154 39.0886L27.8532 39.1188ZM33.9731 37.2473C33.4855 34.5828 32.771 31.9648 31.8375 29.422C34.1096 29.089 36.4269 29.2538 38.629 29.905C38.3875 31.3797 37.8464 32.7894 37.0391 34.047C36.2319 35.3046 35.1756 36.3835 33.9354 37.2172L33.9731 37.2473ZM31.1734 27.6939L30.9395 27.128C30.7056 26.5922 30.4641 26.064 30.1849 25.5433C34.5088 23.7775 36.2671 21.2345 36.2897 21.2043C37.8808 23.1352 38.76 25.5542 38.78 28.0561C36.2669 27.5353 33.6889 27.403 31.1357 27.6638L31.1734 27.6939Z" fill="#FDFDFD"/>
</svg>
