<svg width="57" height="57" viewBox="0 0 57 57" fill="none" xmlns="http://www.w3.org/2000/svg">
<path d="M28.6985 3.01846C33.6983 3.01846 38.5858 4.50111 42.743 7.27887C46.9002 10.0566 50.1404 14.0047 52.0538 18.624C53.9671 23.2432 54.4677 28.3261 53.4923 33.2298C52.5169 38.1336 50.1092 42.638 46.5738 46.1734C43.0384 49.7089 38.534 52.1165 33.6303 53.0919C28.7265 54.0673 23.6436 53.5667 19.0244 51.6533C14.4052 49.74 10.457 46.4999 7.67925 42.3427C4.90149 38.1854 3.41888 33.2979 3.41888 28.298C3.42488 21.5953 6.09017 15.1689 10.8297 10.4293C15.5693 5.68979 21.9957 3.02445 28.6985 3.01846ZM28.6985 0C23.1016 0 17.6305 1.65965 12.9769 4.76908C8.3233 7.87851 4.69628 12.2981 2.55447 17.4689C0.412656 22.6397 -0.147745 28.3295 0.944141 33.8187C2.03603 39.308 4.73115 44.3503 8.6887 48.3078C12.6463 52.2654 17.6885 54.9605 23.1778 56.0524C28.6671 57.1443 34.3568 56.5839 39.5276 54.442C44.6984 52.3002 49.118 48.6732 52.2274 44.0196C55.3369 39.366 56.9965 33.8949 56.9965 28.298C56.9965 20.7929 54.0151 13.5952 48.7082 8.28832C43.4013 2.98141 36.2036 0 28.6985 0Z" fill="#FDFDFD"/>
<path d="M26.1932 27.9581C26.7458 27.7025 27.2411 27.3381 27.6496 26.8866C28.2732 26.0994 28.5896 25.1126 28.5401 24.1096C28.5663 23.0784 28.2564 22.0666 27.6572 21.227C26.6837 19.9215 25.0387 19.2575 22.7069 19.2197H13.4629V38.0851H22.0806C22.9871 38.0912 23.892 38.0078 24.7821 37.8361C25.5633 37.6836 26.3006 37.3588 26.9403 36.8852C27.4858 36.4763 27.9449 35.9634 28.291 35.376C28.8681 34.4762 29.1673 33.4264 29.1513 32.3575C29.18 31.3824 28.9173 30.4208 28.3967 29.5957C27.8616 28.823 27.0874 28.2476 26.1932 27.9581ZM17.2737 22.4947H21.4392C22.2045 22.4744 22.9683 22.5738 23.703 22.789C24.0384 22.9311 24.3193 23.1772 24.5041 23.4911C24.6889 23.805 24.7678 24.17 24.7293 24.5322C24.7642 24.8501 24.7125 25.1715 24.5797 25.4625C24.4468 25.7534 24.2378 26.003 23.9747 26.1848C23.356 26.5227 22.6565 26.6845 21.9523 26.6527H17.2963L17.2737 22.4947ZM23.8539 34.478C23.2415 34.7268 22.5824 34.8401 21.9221 34.81H17.2737V29.7768H21.9825C22.636 29.7548 23.2875 29.8625 23.8992 30.0937C24.2884 30.2626 24.615 30.5493 24.833 30.9134C25.0509 31.2775 25.1492 31.7007 25.1141 32.1236C25.164 32.5971 25.0706 33.0747 24.8459 33.4945C24.6212 33.9143 24.2756 34.2569 23.8539 34.478Z" fill="#FDFDFD"/>
<path d="M41.429 20.1025H33.2339V22.4494H41.429V20.1025Z" fill="#FDFDFD"/>
<path d="M43.1494 26.4797C42.5478 25.5737 41.6994 24.8589 40.7045 24.4196C39.6565 23.9686 38.5249 23.7449 37.3842 23.7631C36.4546 23.7267 35.5273 23.8791 34.6583 24.2111C33.7893 24.5432 32.9967 25.0479 32.3283 25.6949C31.0303 26.9878 30.3813 28.8417 30.3813 31.2565C30.3813 33.8372 31.1007 35.6986 32.5395 36.8406C33.9482 37.9766 35.7106 38.5828 37.52 38.5536C38.4939 38.607 39.468 38.4538 40.3784 38.1039C41.2888 37.7541 42.1149 37.2155 42.8023 36.5236C43.5214 35.8547 44.0034 34.9701 44.1757 34.0032H40.4027C40.2165 34.3691 39.9601 34.6948 39.648 34.9616C39.0586 35.4064 38.3332 35.633 37.5955 35.603C36.8803 35.6209 36.1744 35.4379 35.558 35.0748C35.0706 34.7595 34.6747 34.3216 34.4099 33.8051C34.145 33.2886 34.0204 32.7116 34.0488 32.1318H44.3493C44.3814 31.2067 44.3385 30.2805 44.221 29.3624C44.0908 28.3317 43.724 27.3452 43.1494 26.4797ZM34.1921 29.7246C34.2788 28.9184 34.6227 28.1617 35.1731 27.5664C35.473 27.3 35.8231 27.096 36.2027 26.9665C36.5823 26.8369 36.984 26.7843 37.3842 26.8118C38.1832 26.7901 38.9631 27.0581 39.5801 27.5664C39.8842 27.8482 40.128 28.1887 40.2966 28.5675C40.4652 28.9462 40.5552 29.3553 40.5611 29.7698L34.1921 29.7246Z" fill="#FDFDFD"/>
</svg>
