<svg width="57" height="57" viewBox="0 0 57 57" fill="none" xmlns="http://www.w3.org/2000/svg">
<path d="M28.6985 3.01846C33.6983 3.01846 38.5858 4.50111 42.743 7.27887C46.9002 10.0566 50.1404 14.0047 52.0537 18.624C53.9671 23.2432 54.4677 28.3261 53.4923 33.2298C52.5169 38.1336 50.1092 42.638 46.5738 46.1734C43.0384 49.7089 38.534 52.1165 33.6302 53.0919C28.7265 54.0673 23.6436 53.5667 19.0244 51.6533C14.4051 49.74 10.457 46.4999 7.67923 42.3427C4.90147 38.1854 3.41886 33.2979 3.41886 28.298C3.42685 21.5959 6.09279 15.1706 10.8319 10.4315C15.571 5.69238 21.9963 3.02645 28.6985 3.01846ZM28.6985 0C23.1016 0 17.6305 1.65965 12.9769 4.76908C8.3233 7.87851 4.69628 12.2981 2.55447 17.4689C0.412656 22.6397 -0.147745 28.3295 0.944141 33.8187C2.03603 39.308 4.73115 44.3503 8.6887 48.3078C12.6463 52.2654 17.6885 54.9605 23.1778 56.0524C28.6671 57.1443 34.3568 56.5839 39.5276 54.442C44.6984 52.3002 49.118 48.6732 52.2274 44.0196C55.3368 39.366 56.9965 33.8949 56.9965 28.298C56.9965 20.7929 54.0151 13.5952 48.7082 8.28832C43.4013 2.98141 36.2036 0 28.6985 0Z" fill="#F55C59"/>
<path d="M42.1609 18.5405C41.0485 19.2146 39.8283 19.692 38.5538 19.9516C38.0295 19.3732 37.3902 18.9107 36.6768 18.5936C35.9634 18.2765 35.1917 18.1119 34.411 18.1104C32.8866 18.1322 31.433 18.7578 30.3692 19.8499C29.3054 20.942 28.7181 22.4115 28.7363 23.936C28.7338 24.3802 28.7819 24.8232 28.8797 25.2566C26.6094 25.1339 24.3915 24.5278 22.3744 23.4789C20.3573 22.43 18.5874 20.9625 17.1831 19.1744C16.6826 20.0686 16.4226 21.0775 16.4285 22.1023C16.4241 23.0537 16.6512 23.9919 17.0903 24.8359C17.5294 25.68 18.1673 26.4045 18.9489 26.9469C18.044 26.914 17.1619 26.6546 16.3833 26.1923V26.2677C16.3691 27.5937 16.8112 28.8843 17.6356 29.923C18.46 30.9617 19.6164 31.6853 20.9109 31.9726C20.42 32.1113 19.9119 32.18 19.4017 32.1764C19.0418 32.1793 18.6826 32.1439 18.3302 32.0707C18.6769 33.2127 19.3731 34.2172 20.3207 34.9428C21.2683 35.6684 22.4196 36.0785 23.6125 36.1154C21.6177 37.7283 19.1296 38.6074 16.5644 38.6057C16.1105 38.6073 15.6569 38.5821 15.2061 38.5302C17.7915 40.2324 20.8189 41.1401 23.9143 41.1412C34.3506 41.1412 40.0631 32.2745 40.0631 24.5774C40.0631 24.3284 40.0631 24.0718 40.0631 23.8228C41.1801 22.9949 42.1387 21.9724 42.8929 20.8043C41.8598 21.2764 40.7603 21.5869 39.6329 21.725C40.8298 21.0005 41.7268 19.8705 42.1609 18.5405Z" fill="#F55C59"/>
</svg>
