<svg width="58" height="57" viewBox="0 0 58 57" fill="none" xmlns="http://www.w3.org/2000/svg">
<path d="M29.0993 3.01846C34.0991 3.01846 38.9867 4.50107 43.1439 7.27883C47.3011 10.0566 50.5412 14.0047 52.4546 18.624C54.368 23.2432 54.8686 28.3261 53.8932 33.2298C52.9178 38.1336 50.51 42.638 46.9746 46.1734C43.4392 49.7088 38.9349 52.1165 34.0311 53.0919C29.1274 54.0673 24.0444 53.5667 19.4252 51.6533C14.806 49.74 10.8579 46.4998 8.0801 42.3426C5.30234 38.1854 3.81973 33.2979 3.81973 28.298C3.82772 21.5959 6.49366 15.1706 11.2328 10.4315C15.9719 5.69238 22.3972 3.02645 29.0993 3.01846ZM29.0993 0C23.5025 0 18.0314 1.65965 13.3778 4.76908C8.72419 7.87851 5.09712 12.298 2.95531 17.4688C0.8135 22.6396 0.253146 28.3294 1.34503 33.8187C2.43692 39.308 5.13204 44.3502 9.0896 48.3078C13.0471 52.2653 18.0893 54.9604 23.5786 56.0523C29.0679 57.1442 34.7577 56.5839 39.9285 54.4421C45.0993 52.3002 49.5188 48.6732 52.6282 44.0196C55.7377 39.366 57.3974 33.8949 57.3974 28.298C57.3974 20.7929 54.416 13.5952 49.109 8.28833C43.8021 2.98141 36.6044 0 29.0993 0Z" fill="#FDFDFD"/>
<path d="M35.4454 31.0528C35.3699 30.9245 35.1587 30.849 34.8568 30.6981C34.555 30.5471 33.0306 29.8001 32.7439 29.702C32.4571 29.6039 32.2609 29.5511 32.0496 29.8529C31.8383 30.1547 31.295 30.849 31.0762 31.0528C30.8574 31.2565 30.714 31.2791 30.4046 31.1282C29.4988 30.7713 28.6615 30.2607 27.9294 29.619C27.2547 29.0035 26.6749 28.2915 26.2089 27.5061C26.1766 27.456 26.1546 27.4001 26.1439 27.3415C26.1333 27.283 26.1344 27.2229 26.147 27.1647C26.1596 27.1065 26.1835 27.0514 26.2175 27.0025C26.2514 26.9536 26.2947 26.9119 26.3448 26.8797C26.4881 26.7439 26.6542 26.525 26.8126 26.3439C26.9388 26.192 27.0406 26.0215 27.1145 25.8383C27.1594 25.7562 27.1829 25.6641 27.1829 25.5705C27.1829 25.4768 27.1594 25.3847 27.1145 25.3026C27.039 25.1516 26.4202 23.6499 26.1637 23.0387C25.9071 22.4275 25.0845 22.503 24.8808 22.503C24.5723 22.5339 24.2829 22.6667 24.0583 22.8803C23.703 23.2008 23.4223 23.5952 23.2358 24.0359C23.0494 24.4765 22.9618 24.9527 22.9792 25.4309C23.0771 26.584 23.5157 27.682 24.2394 28.5852C24.3903 28.7889 26.5032 31.9432 29.6651 33.2034C32.5854 34.3806 33.2495 34.275 33.8381 34.0712C34.5061 33.7592 35.0259 33.1987 35.2869 32.5092C35.4876 32.0543 35.5506 31.5505 35.468 31.0603L35.4454 31.0528Z" fill="#FDFDFD"/>
<path d="M28.8051 15.8018C25.4809 15.8018 22.2927 17.1223 19.9421 19.4729C17.5915 21.8235 16.271 25.0116 16.271 28.3359C16.2691 30.4781 16.8229 32.5842 17.8783 34.4483L16.271 40.8776L22.6852 39.2703C24.3568 40.207 26.2208 40.7479 28.1341 40.8517C30.0474 40.9554 31.959 40.6191 33.722 39.8685C35.485 39.118 37.0525 37.9733 38.304 36.5223C39.5554 35.0714 40.4577 33.3528 40.9412 31.4987C41.4247 29.6446 41.4766 27.7043 41.0931 25.827C40.7095 23.9496 39.9006 22.1852 38.7286 20.6694C37.5566 19.1535 36.0527 17.9265 34.3324 17.0826C32.6121 16.2388 30.7213 15.8006 28.8051 15.8018ZM28.8051 39.1948C26.7161 39.1937 24.6719 38.5883 22.9191 37.4517L20.7534 37.9346L18.7914 38.3647L19.7649 34.4709V34.3728C18.4195 32.3593 17.7853 29.954 17.9629 27.5389C18.1405 25.1237 19.1198 22.8371 20.7453 21.0421C22.3707 19.247 24.5493 18.0464 26.935 17.6307C29.3207 17.2151 31.777 17.6083 33.9137 18.7479C36.0505 19.8875 37.7454 21.7082 38.7293 23.921C39.7132 26.1337 39.9297 28.6118 39.3445 30.9617C38.7593 33.3116 37.406 35.3987 35.4993 36.8916C33.5926 38.3846 31.2419 39.1979 28.8202 39.2024L28.8051 39.1948Z" fill="#FDFDFD"/>
</svg>
