<svg width="57" height="57" viewBox="0 0 57 57" fill="none" xmlns="http://www.w3.org/2000/svg">
<path d="M28.2981 3.01846C33.2979 3.01846 38.1854 4.50108 42.3426 7.27884C46.4999 10.0566 49.74 14.0047 51.6533 18.624C53.5667 23.2432 54.0673 28.3261 53.0919 33.2298C52.1165 38.1336 49.7088 42.638 46.1734 46.1734C42.638 49.7088 38.1336 52.1165 33.2299 53.0919C28.3261 54.0673 23.2432 53.5667 18.624 51.6533C14.0047 49.74 10.0566 46.4998 7.27886 42.3426C4.5011 38.1854 3.01847 33.2979 3.01847 28.298C3.02646 21.5959 5.6924 15.1706 10.4315 10.4315C15.1706 5.69239 21.5959 3.02645 28.2981 3.01846ZM28.2981 0C22.7012 0 17.2301 1.65965 12.5765 4.76908C7.92291 7.87851 4.29589 12.2981 2.15408 17.4689C0.0122649 22.6396 -0.548136 28.3294 0.54375 33.8187C1.63564 39.308 4.33076 44.3502 8.28831 48.3078C12.2459 52.2653 17.2881 54.9605 22.7774 56.0524C28.2667 57.1442 33.9565 56.5838 39.1272 54.442C44.298 52.3002 48.7176 48.6732 51.827 44.0196C54.9365 39.366 56.5961 33.8949 56.5961 28.298C56.5961 20.7929 53.6147 13.5952 48.3078 8.28831C43.0009 2.98139 35.8032 0 28.2981 0Z" fill="#FDFDFD"/>
<path d="M33.3843 29.0449H21.6953V23.6494H34.2823L33.3843 29.0449Z" fill="#FDFDFD"/>
<path d="M24.4193 20.0878V41.6245H29.8072V20.9556C29.7929 20.8339 29.8062 20.7105 29.8461 20.5946C29.8861 20.4787 29.9516 20.3734 30.0379 20.2863C30.1242 20.1993 30.229 20.1329 30.3446 20.092C30.4601 20.0511 30.5834 20.0367 30.7052 20.0501H34.3047V14.6621H30.1619C24.2759 14.6621 24.4193 19.386 24.4193 20.0878Z" fill="#FDFDFD"/>
</svg>
