<svg width="40" height="40" viewBox="0 0 40 40" fill="none" xmlns="http://www.w3.org/2000/svg">
<path d="M18.1213 3.3335C8.91626 3.3335 1.45459 10.7952 1.45459 20.0002C1.45459 29.2052 8.91626 36.6668 18.1213 36.6668C27.3263 36.6668 34.7879 29.2052 34.7879 20.0002C34.7879 10.7952 27.3263 3.3335 18.1213 3.3335Z" stroke="#5682B3" stroke-width="2.90909" stroke-linecap="round" stroke-linejoin="round"/>
<path d="M11.4546 35.2803V23.3337L18.1213 11.667L24.7879 23.3337V35.2803" stroke="#5682B3" stroke-width="2.90909" stroke-linecap="round" stroke-linejoin="round"/>
<path d="M11.4546 23.3335C11.4546 23.3335 13.3329 25.0002 14.7879 25.0002C16.2429 25.0002 18.1213 23.3335 18.1213 23.3335C18.1213 23.3335 19.9996 25.0002 21.4546 25.0002C22.9096 25.0002 24.7879 23.3335 24.7879 23.3335" stroke="#5682B3" stroke-width="2.90909" stroke-linecap="round" stroke-linejoin="round"/>
</svg>
