<svg width="57" height="57" viewBox="0 0 57 57" fill="none" xmlns="http://www.w3.org/2000/svg">
<path d="M28.6987 3.01846C33.6985 3.01846 38.5861 4.50111 42.7433 7.27887C46.9005 10.0566 50.1406 14.0047 52.054 18.624C53.9673 23.2432 54.468 28.3261 53.4926 33.2298C52.5171 38.1336 50.1095 42.638 46.574 46.1734C43.0386 49.7089 38.5343 52.1165 33.6305 53.0919C28.7267 54.0673 23.6439 53.5667 19.0246 51.6533C14.4054 49.74 10.4572 46.4999 7.67947 42.3427C4.90172 38.1854 3.41911 33.2979 3.41911 28.298C3.42709 21.5959 6.09303 15.1706 10.8321 10.4315C15.5713 5.69238 21.9966 3.02645 28.6987 3.01846ZM28.6987 0C23.1019 0 17.6307 1.65965 12.9771 4.76908C8.32355 7.87851 4.69652 12.2981 2.55471 17.4689C0.4129 22.6397 -0.147501 28.3295 0.944385 33.8187C2.03627 39.308 4.7314 44.3503 8.68895 48.3078C12.6465 52.2654 17.6887 54.9605 23.178 56.0524C28.6673 57.1443 34.3571 56.5839 39.5279 54.442C44.6987 52.3002 49.1182 48.6732 52.2277 44.0196C55.3371 39.366 56.9967 33.8949 56.9967 28.298C56.9967 20.7929 54.0153 13.5952 48.7084 8.28832C43.4015 2.98141 36.2038 0 28.6987 0Z" fill="white"/>
<path d="M42.1611 18.5405C41.0488 19.2146 39.8286 19.692 38.5541 19.9516C38.0298 19.3732 37.3904 18.9107 36.677 18.5936C35.9637 18.2765 35.1919 18.1119 34.4112 18.1104C32.8868 18.1322 31.4333 18.7578 30.3694 19.8499C29.3056 20.942 28.7184 22.4115 28.7365 23.936C28.7341 24.3802 28.7822 24.8232 28.8799 25.2566C26.6097 25.1339 24.3918 24.5278 22.3747 23.4789C20.3575 22.43 18.5876 20.9625 17.1834 19.1744C16.6828 20.0686 16.4228 21.0775 16.4288 22.1023C16.4243 23.0537 16.6514 23.9919 17.0905 24.8359C17.5296 25.68 18.1675 26.4045 18.9492 26.9469C18.0443 26.914 17.1621 26.6546 16.3835 26.1923V26.2677C16.3693 27.5937 16.8115 28.8843 17.6358 29.923C18.4602 30.9617 19.6166 31.6853 20.9112 31.9726C20.4202 32.1113 19.9121 32.18 19.402 32.1764C19.042 32.1793 18.6828 32.1439 18.3304 32.0707C18.6772 33.2127 19.3733 34.2172 20.3209 34.9428C21.2685 35.6684 22.4198 36.0785 23.6127 36.1154C21.6179 37.7283 19.1298 38.6074 16.5646 38.6057C16.1107 38.6073 15.6572 38.5821 15.2063 38.5302C17.7917 40.2324 20.8191 41.1401 23.9146 41.1412C34.3509 41.1412 40.0633 32.2745 40.0633 24.5774C40.0633 24.3284 40.0633 24.0718 40.0633 23.8228C41.1803 22.9949 42.1389 21.9724 42.8931 20.8043C41.86 21.2764 40.7606 21.5869 39.6332 21.725C40.83 21.0005 41.7271 19.8705 42.1611 18.5405Z" fill="white"/>
</svg>
